<svg id="visual" viewBox="0 0 100 50" width="100" height="50" xmlns="http://www.w3.org/2000/svg" xmlns:xlink="http://www.w3.org/1999/xlink" version="1.1"><g transform="translate(97.06543088732936 48.49949209419199)"><path d="M17.1 -27.3C22.8 -23.1 28.2 -19.2 32.1 -13.8C36 -8.3 38.3 -1.2 38 5.9C37.6 13.1 34.7 20.3 30 26.3C25.3 32.3 18.8 37.2 11.9 38C5 38.9 -2.3 35.7 -7.7 31.7C-13.2 27.6 -16.8 22.7 -20.8 18C-24.8 13.4 -29.2 9.1 -31.1 3.7C-33 -1.6 -32.4 -8.1 -28.8 -12C-25.2 -15.8 -18.5 -17.1 -13.2 -21.5C-7.9 -25.9 -3.9 -33.5 0.9 -34.9C5.8 -36.3 11.5 -31.6 17.1 -27.3" fill="#FFFFFF"></path></g></svg>